# xmcd
#
# Track frame offsets:
#	150
#	19332
#	36887
#	53510
#	84670
#	98277
#	124765
#	135972
#	150381
#	166706
#	186286
#	200981
#
# Disc length: 2925 seconds
#
# Revision: 2
# Processed by: cddbd v1.5.2PL0 Copyright (c) Steve Scherf et al.
# Submitted via: EZCDAudioConverter 1.3.4.1
#
DISCID=8e0b6b0c
DTITLE=Vargas Blues Band - Bluestrology
DYEAR=1998
DGENRE=Blues
TTITLE0=Backdoor man
TTITLE1=Troubled mind
TTITLE2=Wild west blues
TTITLE3=Barstool blues
TTITLE4=Blues magic
TTITLE5=Bluestrology
TTITLE6=Bound for Memphis
TTITLE7=Promised Land
TTITLE8=A little bit closer
TTITLE9=You've got to move
TTITLE10=Free Spirits
TTITLE11=Traveling South
EXTD=
EXTT0=
EXTT1=
EXTT2=
EXTT3=
EXTT4=
EXTT5=
EXTT6=
EXTT7=
EXTT8=
EXTT9=
EXTT10=
EXTT11=
PLAYORDER=
